# Exported from ProBuilder
# http://www.procore3d.com/probuilder
# 20/9/2018 6:34:04 PM

mtllib ./Plane.mtl
o Plane

g Plane
v 0 0 0
v 0 1 0
v -1 0 0
v -1 1 0
v 0 1 0
v 0 2 0
v -1 1 0
v -1 2 0
v -1 0 0
v -1 1 0
v -2 0 0
v -2 1 0
v -1 1 0
v -1 2 0
v -2 1 0
v -2 2 0

vn 0 0 -1
vn 0 0 -1
vn 0 0 -1
vn 0 0 -1
vn 0 0 -1
vn 0 0 -1
vn 0 0 -1
vn 0 0 -1
vn 0 0 -1
vn 0 0 -1
vn 0 0 -1
vn 0 0 -1
vn 0 0 -1
vn 0 0 -1
vn 0 0 -1
vn 0 0 -1

vt -1 0
vt -1 1
vt 0 0
vt 0 1
vt -1 1
vt -1 2
vt 0 1
vt 0 2
vt 0 0
vt 0 1
vt 1 0
vt 1 1
vt 0 1
vt 0 2
vt 1 1
vt 1 2

g Plane
usemtl Default_Prototype
f 3/3/3 4/4/4 2/2/2 1/1/1
f 7/7/7 8/8/8 6/6/6 5/5/5
f 11/11/11 12/12/12 10/10/10 9/9/9
f 15/15/15 16/16/16 14/14/14 13/13/13

